<mxfile host="Electron" modified="2023-11-14T01:03:40.211Z" agent="Mozilla/5.0 (X11; Linux x86_64) AppleWebKit/537.36 (KHTML, like Gecko) draw.io/22.0.3 Chrome/114.0.5735.289 Electron/25.8.4 Safari/537.36" etag="nhUzt3p3up_mv6noRWWg" version="22.0.3" type="device">
  <diagram name="Page-1" id="5f0bae14-7c28-e335-631c-24af17079c00">
    <mxGraphModel dx="2983" dy="389" grid="1" gridSize="10" guides="1" tooltips="1" connect="1" arrows="1" fold="1" page="0" pageScale="1" pageWidth="1100" pageHeight="850" background="none" math="0" shadow="0">
      <root>
        <mxCell id="0" />
        <mxCell id="1" parent="0" />
        <mxCell id="CKKCqleq4G6l4Nf2uI_q-17" value="&lt;p style=&quot;margin:0px;margin-top:6px;text-align:center;&quot;&gt;&amp;lt;&amp;lt;subsystem&amp;gt;&amp;gt;&lt;/p&gt;&lt;p style=&quot;margin:0px;margin-top:6px;text-align:center;&quot;&gt;&lt;b&gt;Hypervisor&lt;/b&gt;&lt;/p&gt;&lt;hr&gt;&lt;p style=&quot;margin:0px;margin-left:8px;&quot;&gt;&lt;br&gt;&lt;/p&gt;" style="align=left;overflow=fill;html=1;dropTarget=0;whiteSpace=wrap;" vertex="1" parent="1">
          <mxGeometry x="-1080" y="400" width="480" height="360" as="geometry" />
        </mxCell>
        <mxCell id="CKKCqleq4G6l4Nf2uI_q-18" value="" style="shape=component;jettyWidth=8;jettyHeight=4;" vertex="1" parent="CKKCqleq4G6l4Nf2uI_q-17">
          <mxGeometry x="1" width="20" height="20" relative="1" as="geometry">
            <mxPoint x="-24" y="4" as="offset" />
          </mxGeometry>
        </mxCell>
        <mxCell id="CKKCqleq4G6l4Nf2uI_q-19" value="&lt;p style=&quot;margin:0px;margin-top:6px;text-align:center;&quot;&gt;&amp;lt;&amp;lt;subsystem&amp;gt;&amp;gt;&lt;/p&gt;&lt;p style=&quot;margin:0px;margin-top:6px;text-align:center;&quot;&gt;&lt;b&gt;Virtual machine&lt;/b&gt;&lt;/p&gt;&lt;hr&gt;&lt;p style=&quot;margin:0px;margin-left:8px;&quot;&gt;&lt;br&gt;&lt;/p&gt;" style="align=left;overflow=fill;html=1;dropTarget=0;whiteSpace=wrap;" vertex="1" parent="1">
          <mxGeometry x="-600" y="400" width="240" height="360" as="geometry" />
        </mxCell>
        <mxCell id="CKKCqleq4G6l4Nf2uI_q-20" value="" style="shape=component;jettyWidth=8;jettyHeight=4;" vertex="1" parent="CKKCqleq4G6l4Nf2uI_q-19">
          <mxGeometry x="1" width="20" height="20" relative="1" as="geometry">
            <mxPoint x="-24" y="4" as="offset" />
          </mxGeometry>
        </mxCell>
        <mxCell id="CKKCqleq4G6l4Nf2uI_q-62" value="&lt;p style=&quot;margin:0px;margin-top:6px;text-align:center;&quot;&gt;&amp;lt;&amp;lt;subsystem&amp;gt;&amp;gt;&lt;/p&gt;&lt;p style=&quot;margin:0px;margin-top:6px;text-align:center;&quot;&gt;&lt;b&gt;Hardware&lt;/b&gt;&lt;/p&gt;&lt;hr&gt;&lt;p style=&quot;margin:0px;margin-left:8px;&quot;&gt;&lt;br&gt;&lt;/p&gt;" style="align=left;overflow=fill;html=1;dropTarget=0;whiteSpace=wrap;" vertex="1" parent="1">
          <mxGeometry x="-1320" y="400" width="240" height="360" as="geometry" />
        </mxCell>
        <mxCell id="CKKCqleq4G6l4Nf2uI_q-63" value="" style="shape=component;jettyWidth=8;jettyHeight=4;" vertex="1" parent="CKKCqleq4G6l4Nf2uI_q-62">
          <mxGeometry x="1" width="20" height="20" relative="1" as="geometry">
            <mxPoint x="-24" y="4" as="offset" />
          </mxGeometry>
        </mxCell>
        <mxCell id="CKKCqleq4G6l4Nf2uI_q-57" style="edgeStyle=orthogonalEdgeStyle;shape=connector;rounded=0;orthogonalLoop=1;jettySize=auto;html=1;entryX=0;entryY=0.5;entryDx=0;entryDy=0;labelBackgroundColor=default;strokeColor=#6c8ebf;align=center;verticalAlign=middle;fontFamily=Helvetica;fontSize=11;fontColor=default;endArrow=none;endFill=0;fillColor=#dae8fc;strokeWidth=2;" edge="1" parent="1" source="CKKCqleq4G6l4Nf2uI_q-4" target="CKKCqleq4G6l4Nf2uI_q-46">
          <mxGeometry relative="1" as="geometry" />
        </mxCell>
        <mxCell id="CKKCqleq4G6l4Nf2uI_q-4" value="&lt;b&gt;Emulated&lt;br&gt;NIC&lt;br&gt;&lt;/b&gt;" style="html=1;dropTarget=0;whiteSpace=wrap;fillColor=#dae8fc;strokeColor=#6c8ebf;" vertex="1" parent="1">
          <mxGeometry x="-800" y="640" width="120" height="80" as="geometry" />
        </mxCell>
        <mxCell id="CKKCqleq4G6l4Nf2uI_q-5" value="" style="shape=module;jettyWidth=8;jettyHeight=4;fillColor=#dae8fc;strokeColor=#6c8ebf;" vertex="1" parent="CKKCqleq4G6l4Nf2uI_q-4">
          <mxGeometry x="1" width="20" height="20" relative="1" as="geometry">
            <mxPoint x="-27" y="7" as="offset" />
          </mxGeometry>
        </mxCell>
        <mxCell id="CKKCqleq4G6l4Nf2uI_q-9" value="&lt;b&gt;Physical&lt;br&gt;NIC&lt;br&gt;&lt;/b&gt;" style="html=1;dropTarget=0;whiteSpace=wrap;" vertex="1" parent="1">
          <mxGeometry x="-1280" y="640" width="120" height="80" as="geometry" />
        </mxCell>
        <mxCell id="CKKCqleq4G6l4Nf2uI_q-10" value="" style="shape=module;jettyWidth=8;jettyHeight=4;" vertex="1" parent="CKKCqleq4G6l4Nf2uI_q-9">
          <mxGeometry x="1" width="20" height="20" relative="1" as="geometry">
            <mxPoint x="-27" y="7" as="offset" />
          </mxGeometry>
        </mxCell>
        <mxCell id="CKKCqleq4G6l4Nf2uI_q-13" value="&lt;b&gt;Physical&lt;br&gt;NIC&lt;br&gt;&lt;/b&gt;" style="html=1;dropTarget=0;whiteSpace=wrap;" vertex="1" parent="1">
          <mxGeometry x="-1280" y="480" width="120" height="80" as="geometry" />
        </mxCell>
        <mxCell id="CKKCqleq4G6l4Nf2uI_q-14" value="" style="shape=module;jettyWidth=8;jettyHeight=4;" vertex="1" parent="CKKCqleq4G6l4Nf2uI_q-13">
          <mxGeometry x="1" width="20" height="20" relative="1" as="geometry">
            <mxPoint x="-27" y="7" as="offset" />
          </mxGeometry>
        </mxCell>
        <mxCell id="CKKCqleq4G6l4Nf2uI_q-15" value="&lt;b&gt;NIC&lt;br&gt;Driver&lt;br&gt;&lt;/b&gt;" style="html=1;dropTarget=0;whiteSpace=wrap;" vertex="1" parent="1">
          <mxGeometry x="-520" y="480" width="120" height="80" as="geometry" />
        </mxCell>
        <mxCell id="CKKCqleq4G6l4Nf2uI_q-16" value="" style="shape=module;jettyWidth=8;jettyHeight=4;" vertex="1" parent="CKKCqleq4G6l4Nf2uI_q-15">
          <mxGeometry x="1" width="20" height="20" relative="1" as="geometry">
            <mxPoint x="-27" y="7" as="offset" />
          </mxGeometry>
        </mxCell>
        <mxCell id="CKKCqleq4G6l4Nf2uI_q-21" value="&lt;b&gt;NIC&lt;br&gt;Driver&lt;br&gt;&lt;/b&gt;" style="html=1;dropTarget=0;whiteSpace=wrap;" vertex="1" parent="1">
          <mxGeometry x="-520" y="640" width="120" height="80" as="geometry" />
        </mxCell>
        <mxCell id="CKKCqleq4G6l4Nf2uI_q-22" value="" style="shape=module;jettyWidth=8;jettyHeight=4;" vertex="1" parent="CKKCqleq4G6l4Nf2uI_q-21">
          <mxGeometry x="1" width="20" height="20" relative="1" as="geometry">
            <mxPoint x="-27" y="7" as="offset" />
          </mxGeometry>
        </mxCell>
        <mxCell id="CKKCqleq4G6l4Nf2uI_q-23" value="" style="endArrow=none;dashed=1;html=1;rounded=0;strokeWidth=3;" edge="1" parent="1">
          <mxGeometry width="50" height="50" relative="1" as="geometry">
            <mxPoint x="-1340" y="600" as="sourcePoint" />
            <mxPoint x="-340" y="600" as="targetPoint" />
          </mxGeometry>
        </mxCell>
        <mxCell id="CKKCqleq4G6l4Nf2uI_q-24" value="&lt;b&gt;NIC&lt;br&gt;Driver&lt;br&gt;&lt;/b&gt;" style="html=1;dropTarget=0;whiteSpace=wrap;fillColor=#dae8fc;strokeColor=#6c8ebf;" vertex="1" parent="1">
          <mxGeometry x="-1000" y="640" width="120" height="80" as="geometry" />
        </mxCell>
        <mxCell id="CKKCqleq4G6l4Nf2uI_q-25" value="" style="shape=module;jettyWidth=8;jettyHeight=4;fillColor=#dae8fc;strokeColor=#6c8ebf;" vertex="1" parent="CKKCqleq4G6l4Nf2uI_q-24">
          <mxGeometry x="1" width="20" height="20" relative="1" as="geometry">
            <mxPoint x="-27" y="7" as="offset" />
          </mxGeometry>
        </mxCell>
        <mxCell id="CKKCqleq4G6l4Nf2uI_q-26" value="Passthrough" style="text;html=1;strokeColor=#82b366;fillColor=#d5e8d4;align=center;verticalAlign=middle;whiteSpace=wrap;rounded=0;strokeWidth=3;" vertex="1" parent="1">
          <mxGeometry x="-920" y="570" width="160" height="30" as="geometry" />
        </mxCell>
        <mxCell id="CKKCqleq4G6l4Nf2uI_q-27" value="Emulation" style="text;html=1;strokeColor=#6c8ebf;fillColor=#dae8fc;align=center;verticalAlign=middle;whiteSpace=wrap;rounded=0;strokeWidth=3;" vertex="1" parent="1">
          <mxGeometry x="-920" y="600" width="160" height="30" as="geometry" />
        </mxCell>
        <mxCell id="CKKCqleq4G6l4Nf2uI_q-33" style="edgeStyle=orthogonalEdgeStyle;shape=connector;rounded=0;orthogonalLoop=1;jettySize=auto;html=1;entryX=0;entryY=0.5;entryDx=0;entryDy=0;labelBackgroundColor=default;strokeColor=#6c8ebf;align=center;verticalAlign=middle;fontFamily=Helvetica;fontSize=11;fontColor=default;endArrow=none;endFill=0;fillColor=#dae8fc;strokeWidth=2;" edge="1" parent="1" source="CKKCqleq4G6l4Nf2uI_q-28" target="CKKCqleq4G6l4Nf2uI_q-4">
          <mxGeometry relative="1" as="geometry" />
        </mxCell>
        <mxCell id="CKKCqleq4G6l4Nf2uI_q-34" style="edgeStyle=orthogonalEdgeStyle;shape=connector;rounded=0;orthogonalLoop=1;jettySize=auto;html=1;entryX=1;entryY=0.5;entryDx=0;entryDy=0;labelBackgroundColor=default;strokeColor=#6c8ebf;align=center;verticalAlign=middle;fontFamily=Helvetica;fontSize=11;fontColor=default;endArrow=none;endFill=0;fillColor=#dae8fc;strokeWidth=2;" edge="1" parent="1" source="CKKCqleq4G6l4Nf2uI_q-28" target="CKKCqleq4G6l4Nf2uI_q-24">
          <mxGeometry relative="1" as="geometry" />
        </mxCell>
        <mxCell id="CKKCqleq4G6l4Nf2uI_q-28" value="Network&lt;br&gt;Access" style="shape=providedRequiredInterface;html=1;verticalLabelPosition=bottom;sketch=0;fillColor=#dae8fc;strokeColor=#6c8ebf;spacing=2;spacingTop=9;" vertex="1" parent="1">
          <mxGeometry x="-850" y="670" width="20" height="20" as="geometry" />
        </mxCell>
        <mxCell id="CKKCqleq4G6l4Nf2uI_q-32" style="edgeStyle=orthogonalEdgeStyle;shape=connector;rounded=0;orthogonalLoop=1;jettySize=auto;html=1;labelBackgroundColor=default;strokeColor=default;align=center;verticalAlign=middle;fontFamily=Helvetica;fontSize=11;fontColor=default;endArrow=none;endFill=0;exitX=1;exitY=0.5;exitDx=0;exitDy=0;exitPerimeter=0;" edge="1" parent="1" source="CKKCqleq4G6l4Nf2uI_q-44" target="CKKCqleq4G6l4Nf2uI_q-21">
          <mxGeometry relative="1" as="geometry">
            <mxPoint x="-590" y="680" as="sourcePoint" />
          </mxGeometry>
        </mxCell>
        <mxCell id="CKKCqleq4G6l4Nf2uI_q-31" style="edgeStyle=orthogonalEdgeStyle;rounded=0;orthogonalLoop=1;jettySize=auto;html=1;endArrow=none;endFill=0;exitX=1;exitY=0.5;exitDx=0;exitDy=0;exitPerimeter=0;dashed=1;dashPattern=8 8;" edge="1" parent="1" source="CKKCqleq4G6l4Nf2uI_q-40" target="CKKCqleq4G6l4Nf2uI_q-15">
          <mxGeometry relative="1" as="geometry">
            <mxPoint x="-590" y="520" as="sourcePoint" />
          </mxGeometry>
        </mxCell>
        <mxCell id="CKKCqleq4G6l4Nf2uI_q-53" style="edgeStyle=orthogonalEdgeStyle;shape=connector;rounded=0;orthogonalLoop=1;jettySize=auto;html=1;entryX=0;entryY=0.5;entryDx=0;entryDy=0;labelBackgroundColor=default;strokeColor=#82b366;align=center;verticalAlign=middle;fontFamily=Helvetica;fontSize=11;fontColor=default;endArrow=none;endFill=0;dashed=1;dashPattern=8 8;entryPerimeter=0;exitX=1;exitY=0.5;exitDx=0;exitDy=0;startArrow=open;startFill=0;fillColor=#d5e8d4;strokeWidth=2;" edge="1" parent="1" source="CKKCqleq4G6l4Nf2uI_q-43" target="CKKCqleq4G6l4Nf2uI_q-40">
          <mxGeometry relative="1" as="geometry" />
        </mxCell>
        <mxCell id="CKKCqleq4G6l4Nf2uI_q-36" value="" style="html=1;rounded=0;" vertex="1" parent="1">
          <mxGeometry x="-1090" y="510" width="20" height="20" as="geometry" />
        </mxCell>
        <mxCell id="CKKCqleq4G6l4Nf2uI_q-37" value="" style="html=1;rounded=0;" vertex="1" parent="1">
          <mxGeometry x="-610" y="510" width="20" height="20" as="geometry" />
        </mxCell>
        <mxCell id="CKKCqleq4G6l4Nf2uI_q-40" value="" style="shape=requiredInterface;html=1;verticalLabelPosition=bottom;sketch=0;fontFamily=Helvetica;fontSize=11;fontColor=default;" vertex="1" parent="1">
          <mxGeometry x="-560" y="510" width="10" height="20" as="geometry" />
        </mxCell>
        <mxCell id="CKKCqleq4G6l4Nf2uI_q-56" style="edgeStyle=orthogonalEdgeStyle;shape=connector;rounded=0;orthogonalLoop=1;jettySize=auto;html=1;labelBackgroundColor=default;strokeColor=#6c8ebf;align=center;verticalAlign=middle;fontFamily=Helvetica;fontSize=11;fontColor=default;endArrow=none;endFill=0;dashed=1;exitX=1;exitY=0.5;exitDx=0;exitDy=0;startArrow=open;startFill=0;fillColor=#dae8fc;strokeWidth=2;" edge="1" parent="1" source="CKKCqleq4G6l4Nf2uI_q-42" target="CKKCqleq4G6l4Nf2uI_q-48">
          <mxGeometry relative="1" as="geometry" />
        </mxCell>
        <mxCell id="CKKCqleq4G6l4Nf2uI_q-41" value="" style="html=1;rounded=0;" vertex="1" parent="1">
          <mxGeometry x="-1090" y="670" width="20" height="20" as="geometry" />
        </mxCell>
        <mxCell id="CKKCqleq4G6l4Nf2uI_q-51" style="edgeStyle=orthogonalEdgeStyle;shape=connector;rounded=0;orthogonalLoop=1;jettySize=auto;html=1;entryX=1;entryY=0.5;entryDx=0;entryDy=0;labelBackgroundColor=default;strokeColor=default;align=center;verticalAlign=middle;fontFamily=Helvetica;fontSize=11;fontColor=default;endArrow=none;endFill=0;" edge="1" parent="1" source="CKKCqleq4G6l4Nf2uI_q-42" target="CKKCqleq4G6l4Nf2uI_q-9">
          <mxGeometry relative="1" as="geometry" />
        </mxCell>
        <mxCell id="CKKCqleq4G6l4Nf2uI_q-42" value="PCI interface" style="ellipse;html=1;aspect=fixed;labelPosition=center;verticalLabelPosition=bottom;align=center;verticalAlign=top;" vertex="1" parent="1">
          <mxGeometry x="-1130" y="670" width="20" height="20" as="geometry" />
        </mxCell>
        <mxCell id="CKKCqleq4G6l4Nf2uI_q-50" style="edgeStyle=orthogonalEdgeStyle;shape=connector;rounded=0;orthogonalLoop=1;jettySize=auto;html=1;entryX=1;entryY=0.5;entryDx=0;entryDy=0;labelBackgroundColor=default;strokeColor=default;align=center;verticalAlign=middle;fontFamily=Helvetica;fontSize=11;fontColor=default;endArrow=none;endFill=0;" edge="1" parent="1" source="CKKCqleq4G6l4Nf2uI_q-43" target="CKKCqleq4G6l4Nf2uI_q-13">
          <mxGeometry relative="1" as="geometry" />
        </mxCell>
        <mxCell id="CKKCqleq4G6l4Nf2uI_q-43" value="PCI interface" style="ellipse;html=1;aspect=fixed;labelPosition=center;verticalLabelPosition=bottom;align=center;verticalAlign=top;" vertex="1" parent="1">
          <mxGeometry x="-1130" y="510" width="20" height="20" as="geometry" />
        </mxCell>
        <mxCell id="CKKCqleq4G6l4Nf2uI_q-45" value="" style="edgeStyle=orthogonalEdgeStyle;shape=connector;rounded=0;orthogonalLoop=1;jettySize=auto;html=1;labelBackgroundColor=default;strokeColor=default;align=center;verticalAlign=middle;fontFamily=Helvetica;fontSize=11;fontColor=default;endArrow=none;endFill=0;exitX=1;exitY=0.5;exitDx=0;exitDy=0;exitPerimeter=0;dashed=1;dashPattern=8 8;" edge="1" parent="1" source="CKKCqleq4G6l4Nf2uI_q-44" target="CKKCqleq4G6l4Nf2uI_q-21">
          <mxGeometry relative="1" as="geometry" />
        </mxCell>
        <mxCell id="CKKCqleq4G6l4Nf2uI_q-44" value="" style="shape=requiredInterface;html=1;verticalLabelPosition=bottom;sketch=0;fontFamily=Helvetica;fontSize=11;fontColor=default;" vertex="1" parent="1">
          <mxGeometry x="-560" y="670" width="10" height="20" as="geometry" />
        </mxCell>
        <mxCell id="CKKCqleq4G6l4Nf2uI_q-46" value="PCI interface" style="ellipse;html=1;aspect=fixed;labelPosition=center;verticalLabelPosition=bottom;align=center;verticalAlign=top;fillColor=#dae8fc;strokeColor=#6c8ebf;" vertex="1" parent="1">
          <mxGeometry x="-650" y="670" width="20" height="20" as="geometry" />
        </mxCell>
        <mxCell id="CKKCqleq4G6l4Nf2uI_q-49" style="edgeStyle=orthogonalEdgeStyle;shape=connector;rounded=0;orthogonalLoop=1;jettySize=auto;html=1;entryX=0;entryY=0.5;entryDx=0;entryDy=0;labelBackgroundColor=default;strokeColor=#6c8ebf;align=center;verticalAlign=middle;fontFamily=Helvetica;fontSize=11;fontColor=default;endArrow=none;endFill=0;fillColor=#dae8fc;strokeWidth=2;" edge="1" parent="1" source="CKKCqleq4G6l4Nf2uI_q-48" target="CKKCqleq4G6l4Nf2uI_q-24">
          <mxGeometry relative="1" as="geometry" />
        </mxCell>
        <mxCell id="CKKCqleq4G6l4Nf2uI_q-48" value="" style="shape=requiredInterface;html=1;verticalLabelPosition=bottom;sketch=0;fontFamily=Helvetica;fontSize=11;fillColor=#dae8fc;strokeColor=#6c8ebf;" vertex="1" parent="1">
          <mxGeometry x="-1045" y="670" width="10" height="20" as="geometry" />
        </mxCell>
        <mxCell id="CKKCqleq4G6l4Nf2uI_q-59" style="edgeStyle=orthogonalEdgeStyle;shape=connector;rounded=0;orthogonalLoop=1;jettySize=auto;html=1;entryX=0;entryY=0.5;entryDx=0;entryDy=0;entryPerimeter=0;labelBackgroundColor=default;strokeColor=#6c8ebf;align=center;verticalAlign=middle;fontFamily=Helvetica;fontSize=11;fontColor=default;endArrow=none;endFill=0;dashed=1;exitX=1;exitY=0.5;exitDx=0;exitDy=0;startArrow=open;startFill=0;fillColor=#dae8fc;strokeWidth=2;" edge="1" parent="1" source="CKKCqleq4G6l4Nf2uI_q-46" target="CKKCqleq4G6l4Nf2uI_q-44">
          <mxGeometry relative="1" as="geometry" />
        </mxCell>
        <mxCell id="CKKCqleq4G6l4Nf2uI_q-38" value="" style="html=1;rounded=0;" vertex="1" parent="1">
          <mxGeometry x="-610" y="670" width="20" height="20" as="geometry" />
        </mxCell>
      </root>
    </mxGraphModel>
  </diagram>
</mxfile>
